<mxfile host="app.diagrams.net" agent="Mozilla/5.0 (Windows NT 10.0; Win64; x64) AppleWebKit/537.36 (KHTML, like Gecko) Chrome/137.0.0.0 Safari/537.36" version="27.1.4">
  <diagram name="Page-1" id="V4njv8axxXYnUxWAd2aY">
    <mxGraphModel dx="786" dy="451" grid="0" gridSize="10" guides="1" tooltips="1" connect="1" arrows="1" fold="1" page="1" pageScale="1" pageWidth="3300" pageHeight="4681" background="none" math="0" shadow="0">
      <root>
        <mxCell id="0" />
        <mxCell id="1" parent="0" />
        <mxCell id="vVUEwjWn0jB33FuXl5H0-1" value="&lt;b&gt;&lt;font face=&quot;Helvetica&quot; style=&quot;font-size: 18px;&quot;&gt;Invoice Processing Bot&lt;/font&gt;&lt;/b&gt;" style="rounded=1;whiteSpace=wrap;html=1;fillColor=#dae8fc;strokeColor=#6c8ebf;" vertex="1" parent="1">
          <mxGeometry x="612" y="55" width="270" height="50" as="geometry" />
        </mxCell>
        <mxCell id="vVUEwjWn0jB33FuXl5H0-4" style="edgeStyle=orthogonalEdgeStyle;rounded=0;orthogonalLoop=1;jettySize=auto;html=1;" edge="1" parent="1">
          <mxGeometry relative="1" as="geometry">
            <mxPoint x="290" y="260" as="targetPoint" />
            <mxPoint x="180" y="259.5" as="sourcePoint" />
            <Array as="points">
              <mxPoint x="250" y="259.5" />
              <mxPoint x="250" y="260.5" />
            </Array>
          </mxGeometry>
        </mxCell>
        <mxCell id="vVUEwjWn0jB33FuXl5H0-2" value="" style="shape=note;whiteSpace=wrap;html=1;backgroundOutline=1;darkOpacity=0.05;" vertex="1" parent="1">
          <mxGeometry x="80" y="210" width="80" height="100" as="geometry" />
        </mxCell>
        <mxCell id="vVUEwjWn0jB33FuXl5H0-3" value="&lt;font face=&quot;Helvetica&quot; style=&quot;font-size: 18px;&quot;&gt;&lt;b&gt;Invoice Pdf&lt;/b&gt;&lt;/font&gt;" style="text;html=1;align=center;verticalAlign=middle;resizable=0;points=[];autosize=1;strokeColor=none;fillColor=none;" vertex="1" parent="1">
          <mxGeometry x="60" y="320" width="120" height="40" as="geometry" />
        </mxCell>
        <mxCell id="vVUEwjWn0jB33FuXl5H0-5" value="&lt;font style=&quot;font-size: 14px;&quot;&gt;Extracts Text&lt;/font&gt;" style="text;html=1;align=center;verticalAlign=middle;resizable=0;points=[];autosize=1;strokeColor=none;fillColor=none;" vertex="1" parent="1">
          <mxGeometry x="185" y="270" width="100" height="30" as="geometry" />
        </mxCell>
        <mxCell id="vVUEwjWn0jB33FuXl5H0-6" value="&lt;font face=&quot;Helvetica&quot; style=&quot;font-size: 14px;&quot;&gt;&lt;b&gt;PyMuPDF&lt;/b&gt;&lt;/font&gt;" style="rounded=1;whiteSpace=wrap;html=1;fillColor=#fff2cc;strokeColor=#d6b656;" vertex="1" parent="1">
          <mxGeometry x="320" y="170" width="150" height="60" as="geometry" />
        </mxCell>
        <mxCell id="vVUEwjWn0jB33FuXl5H0-7" value="&lt;font face=&quot;Helvetica&quot; style=&quot;font-size: 14px;&quot;&gt;&lt;b&gt;Mistral OCR&lt;/b&gt;&lt;/font&gt;" style="rounded=1;whiteSpace=wrap;html=1;fillColor=#e1d5e7;strokeColor=#9673a6;" vertex="1" parent="1">
          <mxGeometry x="320" y="320" width="150" height="60" as="geometry" />
        </mxCell>
        <mxCell id="vVUEwjWn0jB33FuXl5H0-8" value="&lt;i&gt;&lt;font style=&quot;font-size: 14px;&quot; face=&quot;Helvetica&quot;&gt;OR&lt;/font&gt;&lt;/i&gt;" style="text;html=1;align=center;verticalAlign=middle;resizable=0;points=[];autosize=1;strokeColor=none;fillColor=none;" vertex="1" parent="1">
          <mxGeometry x="375" y="260" width="40" height="30" as="geometry" />
        </mxCell>
        <mxCell id="vVUEwjWn0jB33FuXl5H0-9" value="" style="shape=curlyBracket;whiteSpace=wrap;html=1;rounded=1;flipH=1;labelPosition=right;verticalLabelPosition=middle;align=left;verticalAlign=middle;" vertex="1" parent="1">
          <mxGeometry x="490" y="215" width="80" height="120" as="geometry" />
        </mxCell>
        <mxCell id="vVUEwjWn0jB33FuXl5H0-16" value="" style="edgeStyle=orthogonalEdgeStyle;rounded=0;orthogonalLoop=1;jettySize=auto;html=1;" edge="1" parent="1" source="vVUEwjWn0jB33FuXl5H0-11" target="vVUEwjWn0jB33FuXl5H0-15">
          <mxGeometry relative="1" as="geometry" />
        </mxCell>
        <mxCell id="vVUEwjWn0jB33FuXl5H0-21" style="edgeStyle=orthogonalEdgeStyle;rounded=0;orthogonalLoop=1;jettySize=auto;html=1;exitX=1;exitY=0.5;exitDx=0;exitDy=0;" edge="1" parent="1" source="vVUEwjWn0jB33FuXl5H0-11">
          <mxGeometry relative="1" as="geometry">
            <mxPoint x="850" y="275" as="targetPoint" />
          </mxGeometry>
        </mxCell>
        <mxCell id="vVUEwjWn0jB33FuXl5H0-11" value="&lt;font style=&quot;font-size: 18px;&quot;&gt;&lt;b&gt;Extractor Agent&lt;/b&gt;&lt;/font&gt;&amp;nbsp;" style="rounded=1;whiteSpace=wrap;html=1;fillColor=#f8cecc;strokeColor=#b85450;" vertex="1" parent="1">
          <mxGeometry x="580" y="245" width="160" height="60" as="geometry" />
        </mxCell>
        <mxCell id="vVUEwjWn0jB33FuXl5H0-12" value="&lt;font face=&quot;Helvetica&quot; style=&quot;font-size: 18px;&quot;&gt;&lt;b&gt;LLM - Mistral Model&lt;/b&gt;&lt;/font&gt;" style="whiteSpace=wrap;html=1;aspect=fixed;fillColor=#bac8d3;strokeColor=#23445d;" vertex="1" parent="1">
          <mxGeometry x="880" y="190" width="200" height="200" as="geometry" />
        </mxCell>
        <mxCell id="vVUEwjWn0jB33FuXl5H0-13" value="" style="dashed=0;outlineConnect=0;html=1;align=center;labelPosition=center;verticalLabelPosition=bottom;verticalAlign=top;shape=mxgraph.webicons.yelp;fillColor=#EF5140;gradientColor=#9C1410" vertex="1" parent="1">
          <mxGeometry x="950" y="310" width="30" height="30" as="geometry" />
        </mxCell>
        <mxCell id="vVUEwjWn0jB33FuXl5H0-14" value="" style="dashed=0;outlineConnect=0;html=1;align=center;labelPosition=center;verticalLabelPosition=bottom;verticalAlign=top;shape=mxgraph.webicons.adobe_pdf;fillColor=#F40C0C;gradientColor=#610603" vertex="1" parent="1">
          <mxGeometry x="95" y="245" width="50" height="50" as="geometry" />
        </mxCell>
        <mxCell id="vVUEwjWn0jB33FuXl5H0-15" value="" style="shape=waypoint;sketch=0;size=6;pointerEvents=1;points=[];fillColor=#f8cecc;resizable=0;rotatable=0;perimeter=centerPerimeter;snapToPoint=1;strokeColor=#b85450;rounded=1;" vertex="1" parent="1">
          <mxGeometry x="650" y="405" width="20" height="20" as="geometry" />
        </mxCell>
        <mxCell id="vVUEwjWn0jB33FuXl5H0-27" value="" style="edgeStyle=orthogonalEdgeStyle;rounded=0;orthogonalLoop=1;jettySize=auto;html=1;" edge="1" parent="1" source="vVUEwjWn0jB33FuXl5H0-17" target="vVUEwjWn0jB33FuXl5H0-23">
          <mxGeometry relative="1" as="geometry" />
        </mxCell>
        <mxCell id="vVUEwjWn0jB33FuXl5H0-17" value="&lt;font style=&quot;font-size: 12px;&quot;&gt;&lt;i style=&quot;&quot;&gt;{ &quot;Invoice_Number&quot; : &quot;...&quot;&lt;/i&gt;&lt;/font&gt;&lt;div&gt;&lt;font size=&quot;3&quot;&gt;&lt;i&gt;&quot;Invoice_Date&quot; : &quot;...&quot;&lt;/i&gt;&lt;/font&gt;&lt;/div&gt;&lt;div&gt;&lt;font size=&quot;3&quot;&gt;&lt;i&gt;Vendor_Details&quot; : &quot;..&quot;&lt;/i&gt;&lt;/font&gt;&lt;/div&gt;&lt;div&gt;&lt;font size=&quot;3&quot;&gt;&lt;i&gt;Total_Amount&quot; : &quot;...&quot;&amp;nbsp;&lt;/i&gt;&lt;i style=&quot;background-color: transparent; color: light-dark(rgb(0, 0, 0), rgb(255, 255, 255));&quot;&gt;}&lt;/i&gt;&lt;/font&gt;&lt;/div&gt;" style="rounded=1;whiteSpace=wrap;html=1;fillColor=#d5e8d4;strokeColor=#82b366;" vertex="1" parent="1">
          <mxGeometry x="570" y="470" width="210" height="150" as="geometry" />
        </mxCell>
        <mxCell id="vVUEwjWn0jB33FuXl5H0-18" value="&lt;font style=&quot;font-size: 14px;&quot;&gt;Extracts Attributes json&lt;/font&gt;" style="text;html=1;align=center;verticalAlign=middle;resizable=0;points=[];autosize=1;strokeColor=none;fillColor=none;" vertex="1" parent="1">
          <mxGeometry x="585" y="430" width="170" height="30" as="geometry" />
        </mxCell>
        <mxCell id="vVUEwjWn0jB33FuXl5H0-22" value="&lt;font style=&quot;font-size: 14px;&quot;&gt;Using&amp;nbsp;&lt;/font&gt;" style="text;html=1;align=center;verticalAlign=middle;resizable=0;points=[];autosize=1;strokeColor=none;fillColor=none;" vertex="1" parent="1">
          <mxGeometry x="760" y="245" width="60" height="30" as="geometry" />
        </mxCell>
        <mxCell id="vVUEwjWn0jB33FuXl5H0-24" style="edgeStyle=orthogonalEdgeStyle;rounded=0;orthogonalLoop=1;jettySize=auto;html=1;exitX=0.5;exitY=1;exitDx=0;exitDy=0;" edge="1" parent="1" source="vVUEwjWn0jB33FuXl5H0-23">
          <mxGeometry relative="1" as="geometry">
            <mxPoint x="975" y="620" as="targetPoint" />
          </mxGeometry>
        </mxCell>
        <mxCell id="vVUEwjWn0jB33FuXl5H0-36" style="edgeStyle=orthogonalEdgeStyle;rounded=0;orthogonalLoop=1;jettySize=auto;html=1;entryX=0;entryY=0.6;entryDx=0;entryDy=0;entryPerimeter=0;" edge="1" parent="1" source="vVUEwjWn0jB33FuXl5H0-23" target="vVUEwjWn0jB33FuXl5H0-34">
          <mxGeometry relative="1" as="geometry">
            <mxPoint x="1110" y="520" as="targetPoint" />
            <Array as="points">
              <mxPoint x="1110" y="510" />
              <mxPoint x="1110" y="521" />
            </Array>
          </mxGeometry>
        </mxCell>
        <mxCell id="vVUEwjWn0jB33FuXl5H0-23" value="&lt;font style=&quot;font-size: 18px;&quot;&gt;&lt;b style=&quot;&quot;&gt;Validator Agent&lt;/b&gt;&lt;/font&gt;" style="rounded=1;whiteSpace=wrap;html=1;fillColor=#b1ddf0;strokeColor=#10739e;" vertex="1" parent="1">
          <mxGeometry x="890" y="480" width="170" height="60" as="geometry" />
        </mxCell>
        <mxCell id="vVUEwjWn0jB33FuXl5H0-25" value="&lt;font style=&quot;font-size: 14px;&quot;&gt;&lt;i&gt;1) If Total_Amount &amp;gt; 1,00,000 as &quot;High Value&quot;&lt;/i&gt;&lt;/font&gt;&lt;div&gt;&lt;font size=&quot;3&quot;&gt;&lt;i&gt;2) If Gst_Number missing, marked as &quot;Flag&quot;&lt;/i&gt;&lt;/font&gt;&lt;/div&gt;" style="rounded=1;whiteSpace=wrap;html=1;fillColor=#e6d0de;gradientColor=#d5739d;strokeColor=#996185;" vertex="1" parent="1">
          <mxGeometry x="880" y="660" width="220" height="120" as="geometry" />
        </mxCell>
        <mxCell id="vVUEwjWn0jB33FuXl5H0-26" value="&lt;font style=&quot;font-size: 14px;&quot;&gt;Manual code check&lt;/font&gt;" style="text;html=1;align=center;verticalAlign=middle;resizable=0;points=[];autosize=1;strokeColor=none;fillColor=none;" vertex="1" parent="1">
          <mxGeometry x="910" y="620" width="140" height="30" as="geometry" />
        </mxCell>
        <mxCell id="vVUEwjWn0jB33FuXl5H0-29" style="edgeStyle=orthogonalEdgeStyle;rounded=0;orthogonalLoop=1;jettySize=auto;html=1;exitX=0;exitY=0.5;exitDx=0;exitDy=0;" edge="1" parent="1" source="vVUEwjWn0jB33FuXl5H0-28">
          <mxGeometry relative="1" as="geometry">
            <mxPoint x="1110" y="280" as="targetPoint" />
          </mxGeometry>
        </mxCell>
        <mxCell id="vVUEwjWn0jB33FuXl5H0-33" value="" style="edgeStyle=orthogonalEdgeStyle;rounded=0;orthogonalLoop=1;jettySize=auto;html=1;" edge="1" parent="1" source="vVUEwjWn0jB33FuXl5H0-28">
          <mxGeometry relative="1" as="geometry">
            <mxPoint x="1295" y="420" as="targetPoint" />
          </mxGeometry>
        </mxCell>
        <mxCell id="vVUEwjWn0jB33FuXl5H0-28" value="&lt;font style=&quot;font-size: 18px;&quot;&gt;&lt;b&gt;Summary Agent&lt;/b&gt;&lt;/font&gt;" style="rounded=1;whiteSpace=wrap;html=1;fillColor=#fff2cc;gradientColor=#ffd966;strokeColor=#d6b656;" vertex="1" parent="1">
          <mxGeometry x="1210" y="250" width="170" height="60" as="geometry" />
        </mxCell>
        <mxCell id="vVUEwjWn0jB33FuXl5H0-30" value="Using" style="text;html=1;align=center;verticalAlign=middle;resizable=0;points=[];autosize=1;strokeColor=none;fillColor=none;" vertex="1" parent="1">
          <mxGeometry x="1130" y="250" width="50" height="30" as="geometry" />
        </mxCell>
        <mxCell id="vVUEwjWn0jB33FuXl5H0-34" value="&lt;font style=&quot;font-size: 12px;&quot;&gt;&lt;i&gt;Single line Summary get from LLm&lt;/i&gt;&lt;/font&gt;" style="rounded=1;whiteSpace=wrap;html=1;fillColor=#f8cecc;gradientColor=#ea6b66;strokeColor=#b85450;" vertex="1" parent="1">
          <mxGeometry x="1230" y="460" width="150" height="100" as="geometry" />
        </mxCell>
        <mxCell id="vVUEwjWn0jB33FuXl5H0-35" value="&lt;font style=&quot;font-size: 14px;&quot;&gt;Summarize&lt;/font&gt;" style="text;html=1;align=center;verticalAlign=middle;resizable=0;points=[];autosize=1;strokeColor=none;fillColor=none;" vertex="1" parent="1">
          <mxGeometry x="1250" y="425" width="90" height="30" as="geometry" />
        </mxCell>
        <mxCell id="vVUEwjWn0jB33FuXl5H0-37" value="&lt;b&gt;&lt;font style=&quot;font-size: 18px;&quot;&gt;Final Output Json&lt;/font&gt;&lt;/b&gt;" style="rounded=0;whiteSpace=wrap;html=1;fillColor=#60a917;strokeColor=#2D7600;fontColor=#ffffff;" vertex="1" parent="1">
          <mxGeometry x="1480" y="340" width="170" height="60" as="geometry" />
        </mxCell>
        <mxCell id="vVUEwjWn0jB33FuXl5H0-38" value="" style="html=1;shadow=0;dashed=0;align=center;verticalAlign=middle;shape=mxgraph.arrows2.arrow;dy=0.93;dx=18.67;notch=0;" vertex="1" parent="1">
          <mxGeometry x="1390" y="362.5" width="70" height="17.5" as="geometry" />
        </mxCell>
        <mxCell id="vVUEwjWn0jB33FuXl5H0-39" value="&lt;font style=&quot;font-size: 14px;&quot;&gt;Single LLM Call&lt;/font&gt;" style="text;html=1;align=center;verticalAlign=middle;resizable=0;points=[];autosize=1;strokeColor=none;fillColor=none;" vertex="1" parent="1">
          <mxGeometry x="915" y="160" width="120" height="30" as="geometry" />
        </mxCell>
        <mxCell id="vVUEwjWn0jB33FuXl5H0-40" value="&lt;font style=&quot;font-size: 14px;&quot;&gt;&lt;b&gt;1&lt;/b&gt;&lt;/font&gt;" style="ellipse;whiteSpace=wrap;html=1;aspect=fixed;fillColor=#d80073;fontColor=#ffffff;strokeColor=#A50040;" vertex="1" parent="1">
          <mxGeometry x="640" y="200" width="30" height="30" as="geometry" />
        </mxCell>
        <mxCell id="vVUEwjWn0jB33FuXl5H0-41" value="&lt;font style=&quot;font-size: 14px;&quot;&gt;&lt;b&gt;2&lt;/b&gt;&lt;/font&gt;" style="ellipse;whiteSpace=wrap;html=1;aspect=fixed;fillColor=#6a00ff;fontColor=#ffffff;strokeColor=#3700CC;" vertex="1" parent="1">
          <mxGeometry x="950" y="440" width="30" height="30" as="geometry" />
        </mxCell>
        <mxCell id="vVUEwjWn0jB33FuXl5H0-42" value="&lt;b&gt;&lt;font style=&quot;font-size: 14px;&quot;&gt;3&lt;/font&gt;&lt;/b&gt;" style="ellipse;whiteSpace=wrap;html=1;aspect=fixed;fillColor=#f0a30a;fontColor=#000000;strokeColor=#BD7000;" vertex="1" parent="1">
          <mxGeometry x="1280" y="210" width="30" height="30" as="geometry" />
        </mxCell>
        <mxCell id="vVUEwjWn0jB33FuXl5H0-43" value="" style="dashed=0;outlineConnect=0;html=1;align=center;labelPosition=center;verticalLabelPosition=bottom;verticalAlign=top;shape=mxgraph.weblogos.typepad;fillColor=#ADB560;strokeColor=none" vertex="1" parent="1">
          <mxGeometry x="1546.3" y="305" width="37.4" height="28.4" as="geometry" />
        </mxCell>
      </root>
    </mxGraphModel>
  </diagram>
</mxfile>
